<!DOCTYPE svg PUBLIC "-//W3C//DTD SVG 1.1//EN" "http://www.w3.org/Graphics/SVG/1.1/DTD/svg11.dtd">
<!-- Uploaded to: SVG Repo, www.svgrepo.com, Transformed by: SVG Repo Mixer Tools -->
<svg fill="#ffffff" width="800px" height="800px" viewBox="0 0 24 24" xmlns="http://www.w3.org/2000/svg" stroke="#ffffff" stroke-width="0.00024000000000000003">
<g id="SVGRepo_bgCarrier" stroke-width="0"/>
<g id="SVGRepo_tracerCarrier" stroke-linecap="round" stroke-linejoin="round"/>
<g id="SVGRepo_iconCarrier">
<path d="M5 5v14a1 1 0 0 0 1 1h3v-2H7V6h2V4H6a1 1 0 0 0-1 1zm14.242-.97-8-2A1 1 0 0 0 10 3v18a.998.998 0 0 0 1.242.97l8-2A1 1 0 0 0 20 19V5a1 1 0 0 0-.758-.97zM15 12.188a1.001 1.001 0 0 1-2 0v-.377a1 1 0 1 1 2 .001v.376z"/>
</g>
</svg>