<!DOCTYPE svg PUBLIC "-//W3C//DTD SVG 1.1//EN" "http://www.w3.org/Graphics/SVG/1.1/DTD/svg11.dtd">
<!-- Uploaded to: SVG Repo, www.svgrepo.com, Transformed by: SVG Repo Mixer Tools -->
<svg width="800px" height="800px" viewBox="0 0 512 512" xmlns="http://www.w3.org/2000/svg" fill="#ffffff" stroke="#ffffff">
<g id="SVGRepo_bgCarrier" stroke-width="0"/>
<g id="SVGRepo_tracerCarrier" stroke-linecap="round" stroke-linejoin="round"/>
<g id="SVGRepo_iconCarrier">
<title>ionicons-v5-k</title>
<rect x="336" y="336" width="80" height="80" rx="8" ry="8"/>
<rect x="272" y="272" width="64" height="64" rx="8" ry="8"/>
<rect x="416" y="416" width="64" height="64" rx="8" ry="8"/>
<rect x="432" y="272" width="48" height="48" rx="8" ry="8"/>
<rect x="272" y="432" width="48" height="48" rx="8" ry="8"/>
<rect x="336" y="96" width="80" height="80" rx="8" ry="8"/>
<rect x="288" y="48" width="176" height="176" rx="16" ry="16" style="fill:none;stroke:#ffffff;stroke-linecap:round;stroke-linejoin:round;stroke-width:32px"/>
<rect x="96" y="96" width="80" height="80" rx="8" ry="8"/>
<rect x="48" y="48" width="176" height="176" rx="16" ry="16" style="fill:none;stroke:#ffffff;stroke-linecap:round;stroke-linejoin:round;stroke-width:32px"/>
<rect x="96" y="336" width="80" height="80" rx="8" ry="8"/>
<rect x="48" y="288" width="176" height="176" rx="16" ry="16" style="fill:none;stroke:#ffffff;stroke-linecap:round;stroke-linejoin:round;stroke-width:32px"/>
</g>
</svg>